<?xml version="1.0" encoding="UTF-8" standalone="no"?>
<!-- Generator: Adobe Illustrator 16.0.0, SVG Export Plug-In . SVG Version: 6.00 Build 0)  -->

<svg
   xmlns:dc="http://purl.org/dc/elements/1.1/"
   xmlns:cc="http://creativecommons.org/ns#"
   xmlns:rdf="http://www.w3.org/1999/02/22-rdf-syntax-ns#"
   xmlns:svg="http://www.w3.org/2000/svg"
   xmlns="http://www.w3.org/2000/svg"
   xmlns:sodipodi="http://sodipodi.sourceforge.net/DTD/sodipodi-0.dtd"
   xmlns:inkscape="http://www.inkscape.org/namespaces/inkscape"
   version="1.1"
   id="Layer_1"
   x="0px"
   y="0px"
   width="52"
   height="64"
   viewBox="0 0 52 64"
   enable-background="new 0 0 64 64"
   xml:space="preserve"
   inkscape:version="0.48.4 r9939"
   sodipodi:docname="404.svg"><metadata
     id="metadata13"><rdf:RDF><cc:Work
         rdf:about=""><dc:format>image/svg+xml</dc:format><dc:type
           rdf:resource="http://purl.org/dc/dcmitype/StillImage" /><dc:title /></cc:Work></rdf:RDF></metadata><defs
     id="defs11" /><sodipodi:namedview
     pagecolor="#ffffff"
     bordercolor="#666666"
     borderopacity="1"
     objecttolerance="10"
     gridtolerance="10"
     guidetolerance="10"
     inkscape:pageopacity="0"
     inkscape:pageshadow="2"
     inkscape:window-width="1600"
     inkscape:window-height="828"
     id="namedview9"
     showgrid="false"
     inkscape:zoom="5.2149125"
     inkscape:cx="40.992283"
     inkscape:cy="39.392853"
     inkscape:window-x="1600"
     inkscape:window-y="24"
     inkscape:window-maximized="1"
     inkscape:current-layer="Layer_1"
     fit-margin-top="0"
     fit-margin-left="0"
     fit-margin-right="0"
     fit-margin-bottom="0" /><path
     inkscape:connector-curvature="0"
     id="path7"
     d="M 49,32 H 44 V 18 C 44,8.059 35.941,0 26,0 16.059,0 8,8.059 8,18 V 32 H 3 c -1.657,0 -3,1.343 -3,3 v 26 c 0,1.657 1.343,3 3,3 h 46 c 1.657,0 3,-1.343 3,-3 V 35 c 0,-1.657 -1.343,-3 -3,-3 z M 29,49.168 V 55 c 0,1.657 -1.343,3 -3,3 -1.657,0 -3,-1.343 -3,-3 V 49.168 C 21.214,48.129 20,46.215 20,44 c 0,-3.314 2.686,-6 6,-6 3.314,0 6,2.686 6,6 0,2.215 -1.214,4.129 -3,5.168 z M 38,32 H 14 V 18 c 0,-6.627 5.373,-12 12,-12 6.627,0 12,5.373 12,12 v 14 z"
     style="fill:#000000" /><rect
     style="fill:#000000;fill-opacity:1;stroke:none"
     id="rect3013"
     width="30.681244"
     height="23.586206"
     x="10.659379"
     y="36.386879" /><text
     xml:space="preserve"
     style="font-size:23.42203522px;font-style:normal;font-weight:normal;line-height:125%;letter-spacing:0px;word-spacing:0px;fill:#ffffff;fill-opacity:1;stroke:none;font-family:Sans"
     x="1.5772692"
     y="56.705925"
     id="text2987"
     sodipodi:linespacing="125%"><tspan
       sodipodi:role="line"
       id="tspan2989"
       x="1.5772692"
       y="56.705925"
       style="font-style:normal;font-variant:normal;font-weight:bold;font-stretch:normal;font-family:Sans;-inkscape-font-specification:Sans Bold">404</tspan></text>
</svg>