<?xml version="1.0" encoding="UTF-8" standalone="no"?>
<!-- Generator: Adobe Illustrator 16.0.0, SVG Export Plug-In . SVG Version: 6.00 Build 0)  -->

<svg
   xmlns:dc="http://purl.org/dc/elements/1.1/"
   xmlns:cc="http://creativecommons.org/ns#"
   xmlns:rdf="http://www.w3.org/1999/02/22-rdf-syntax-ns#"
   xmlns:svg="http://www.w3.org/2000/svg"
   xmlns="http://www.w3.org/2000/svg"
   xmlns:sodipodi="http://sodipodi.sourceforge.net/DTD/sodipodi-0.dtd"
   xmlns:inkscape="http://www.inkscape.org/namespaces/inkscape"
   version="1.1"
   id="Layer_1"
   x="0px"
   y="0px"
   width="52"
   height="64"
   viewBox="0 0 52 64"
   enable-background="new 0 0 64 64"
   xml:space="preserve"
   inkscape:version="0.48.4 r9939"
   sodipodi:docname="pgpchat.svg"><metadata
   id="metadata13"><rdf:RDF><cc:Work
       rdf:about=""><dc:format>image/svg+xml</dc:format><dc:type
         rdf:resource="http://purl.org/dc/dcmitype/StillImage" /><dc:title /></cc:Work></rdf:RDF></metadata><defs
   id="defs11">
	

		
	
			
		</defs><sodipodi:namedview
   pagecolor="#ffffff"
   bordercolor="#666666"
   borderopacity="1"
   objecttolerance="10"
   gridtolerance="10"
   guidetolerance="10"
   inkscape:pageopacity="0"
   inkscape:pageshadow="2"
   inkscape:window-width="1084"
   inkscape:window-height="714"
   id="namedview9"
   showgrid="false"
   inkscape:zoom="3.6875"
   inkscape:cx="8.858475"
   inkscape:cy="31.573847"
   inkscape:window-x="0"
   inkscape:window-y="24"
   inkscape:window-maximized="0"
   inkscape:current-layer="Layer_1"
   fit-margin-top="0"
   fit-margin-left="0"
   fit-margin-right="0"
   fit-margin-bottom="0" />
<path
   inkscape:connector-curvature="0"
   id="path7"
   d="M 49,32 H 44 V 18 C 44,8.059 35.941,0 26,0 16.059,0 8,8.059 8,18 V 32 H 3 c -1.657,0 -3,1.343 -3,3 v 26 c 0,1.657 1.343,3 3,3 h 46 c 1.657,0 3,-1.343 3,-3 V 35 c 0,-1.657 -1.343,-3 -3,-3 z M 29,49.168 V 55 c 0,1.657 -1.343,3 -3,3 -1.657,0 -3,-1.343 -3,-3 V 49.168 C 21.214,48.129 20,46.215 20,44 c 0,-3.314 2.686,-6 6,-6 3.314,0 6,2.686 6,6 0,2.215 -1.214,4.129 -3,5.168 z M 38,32 H 14 V 18 c 0,-6.627 5.373,-12 12,-12 6.627,0 12,5.373 12,12 v 14 z"
   style="fill:#000000" />
<rect
   style="fill:#000000;fill-opacity:1;stroke:none"
   id="rect3013"
   width="30.681244"
   height="23.586206"
   x="10.659379"
   y="36.386879" /><g
   enable-background="new    "
   id="SPEECH_BUBBLES_1_"
   transform="matrix(0.45396008,0,0,0.45396008,11.480995,33.392342)"
   style="fill:#ffffff">
	<g
   id="SPEECH_BUBBLES"
   style="fill:#ffffff">
		<g
   id="g3018"
   style="fill:#ffffff">
			<path
   id="path3020"
   d="m 46.568,34.581 c 0,0.005 0,0.01 0,0.015 -1.301,0.2 -2.629,0.53 -3.984,0.478 C 30.548,34.324 22.711,26.862 22.205,17.952 22.137,15.862 22.512,13.845 23.25,11.966 9.787,14.332 -0.04,23.094 -0.04,33.57 c 0,6.962 4.177,13.177 11.123,17.258 1.573,0.924 1.752,7.861 -7.097,12.05 0,0 12.529,1.976 20.473,-8.067 1.964,0.282 3.996,0.883 6.075,0.883 14.557,0 24.237,-7.162 26.776,-16.896 -2.531,-0.059 -6.918,-0.737 -10.39,-4.308 l -0.352,0.091 z M 56.721,27.814 C 61.27,25.141 64.006,21.07 64.006,16.51 64.006,8.458 55.156,1.931 43.979,1.931 32.8,1.931 25.986,8.458 25.986,16.51 c 0,8.052 6.813,14.492 17.993,14.492 1.361,0 2.692,-0.394 3.979,-0.579 5.204,6.578 13.411,5.284 13.411,5.284 -5.796,-2.743 -5.68,-7.288 -4.648,-7.893 z"
   inkscape:connector-curvature="0"
   style="fill:#ffffff" />
		</g>
	</g>
</g></svg>